# xmcd
#
# Track frame offsets:
#	150
#	17975
#	34602
#	51058
#	68977
#	82915
#	97250
#	115218
#	131946
#	149068
#	162898
#	179591
#	197643
#
# Disc length: 2838 seconds
#
# Revision: 1
# Processed by: cddbd v1.5.2PL0 Copyright (c) Steve Scherf et al.
# Submitted via: AudioConverter v8.05 Copyright (c) D.R. Software
#
DISCID=c00b140d
DTITLE=Yves Desquiotz - Wonderfull
DYEAR=1900
DGENRE=country
TTITLE0=wondervull
TTITLE1=alles am grëff
TTITLE2=verzei mer
TTITLE3=sex richteger
TTITLE4=de pechert song
TTITLE5=ee faux pas
TTITLE6=fofzéng punkten
TTITLE7=abracadabra
TTITLE8=mat 21 joer
TTITLE9=am himmel
TTITLE10=de jérôme
TTITLE11=wondervull hesper kascht
TTITLE12=reimkaraoke
EXTD=
EXTT0=
EXTT1=
EXTT2=
EXTT3=
EXTT4=
EXTT5=
EXTT6=
EXTT7=
EXTT8=
EXTT9=
EXTT10=
EXTT11=
EXTT12=
PLAYORDER=
